STARTFONT 2.1
FONT 8x16 system font-10-1
SIZE 10 100 100
FONTBOUNDINGBOX 8 16 0 0
STARTPROPERTIES 12
FACE_NAME "8x16 system font"
FAMILY_NAME "atarisys"
FONT_ASCENT 13
FONT_DESCENT 3
SPACING "M"
CHARSET_REGISTRY "ATARIST"
CHARSET_ENCODING "1"
X_HEIGHT 8
CAP_HEIGHT 11
DEFAULT_CHAR 63
WEIGHT_NAME "medium"
SLANT "r"
ENDPROPERTIES
CHARS 256
STARTCHAR dec0
ENCODING 0
SWIDTH 800 0
DWIDTH 8 0
BBX 8 16 0 -3
BITMAP
00
00
00
00
00
00
00
00
00
00
00
00
00
00
00
00
ENDCHAR
STARTCHAR dec1
ENCODING 1
SWIDTH 800 0
DWIDTH 8 0
BBX 8 16 0 -3
BITMAP
00
00
00
18
3c
66
c3
81
e7
24
24
24
3c
00
00
00
ENDCHAR
STARTCHAR dec2
ENCODING 2
SWIDTH 800 0
DWIDTH 8 0
BBX 8 16 0 -3
BITMAP
00
00
00
3c
24
24
24
e7
81
c3
66
3c
18
00
00
00
ENDCHAR
STARTCHAR dec3
ENCODING 3
SWIDTH 800 0
DWIDTH 8 0
BBX 8 16 0 -3
BITMAP
00
00
30
38
2c
e6
83
83
e6
2c
38
30
00
00
00
00
ENDCHAR
STARTCHAR dec4
ENCODING 4
SWIDTH 800 0
DWIDTH 8 0
BBX 8 16 0 -3
BITMAP
00
00
0c
1c
34
67
c1
c1
67
34
1c
0c
00
00
00
00
ENDCHAR
STARTCHAR dec5
ENCODING 5
SWIDTH 800 0
DWIDTH 8 0
BBX 8 16 0 -3
BITMAP
00
00
7c
38
ba
92
d6
c6
d6
92
ba
38
7c
00
00
00
ENDCHAR
STARTCHAR dec6
ENCODING 6
SWIDTH 800 0
DWIDTH 8 0
BBX 8 16 0 -3
BITMAP
00
00
fe
fe
fe
fc
fc
f8
fa
f2
f6
e6
ee
00
00
00
ENDCHAR
STARTCHAR dec7
ENCODING 7
SWIDTH 800 0
DWIDTH 8 0
BBX 8 16 0 -3
BITMAP
00
00
ee
c6
d6
92
ba
38
ba
92
d6
c6
ee
00
00
00
ENDCHAR
STARTCHAR dec8
ENCODING 8
SWIDTH 800 0
DWIDTH 8 0
BBX 8 16 0 -3
BITMAP
00
00
01
01
03
03
06
06
8c
8c
d8
58
70
30
20
00
ENDCHAR
STARTCHAR dec9
ENCODING 9
SWIDTH 800 0
DWIDTH 8 0
BBX 8 16 0 -3
BITMAP
00
00
00
3c
66
c3
91
91
9d
81
c3
66
3c
00
00
00
ENDCHAR
STARTCHAR dec10
ENCODING 10
SWIDTH 800 0
DWIDTH 8 0
BBX 8 16 0 -3
BITMAP
00
00
00
00
18
3c
3c
3c
3c
3c
7e
ff
10
38
10
00
ENDCHAR
STARTCHAR dec11
ENCODING 11
SWIDTH 800 0
DWIDTH 8 0
BBX 8 16 0 -3
BITMAP
00
00
08
0e
0f
09
08
08
78
f8
70
00
00
00
00
00
ENDCHAR
STARTCHAR dec12
ENCODING 12
SWIDTH 800 0
DWIDTH 8 0
BBX 8 16 0 -3
BITMAP
00
00
78
40
70
40
40
00
1e
10
1c
10
10
00
00
00
ENDCHAR
STARTCHAR dec13
ENCODING 13
SWIDTH 800 0
DWIDTH 8 0
BBX 8 16 0 -3
BITMAP
00
00
38
40
40
40
38
00
1c
12
1c
14
12
00
00
00
ENDCHAR
STARTCHAR dec14
ENCODING 14
SWIDTH 800 0
DWIDTH 8 0
BBX 8 16 0 -3
BITMAP
00
05
05
05
05
0d
0d
1d
39
79
71
71
61
41
00
00
ENDCHAR
STARTCHAR dec15
ENCODING 15
SWIDTH 800 0
DWIDTH 8 0
BBX 8 16 0 -3
BITMAP
00
a0
a0
a0
a0
b0
b0
b8
9c
9e
8e
8e
86
82
00
00
ENDCHAR
STARTCHAR dec16
ENCODING 16
SWIDTH 800 0
DWIDTH 8 0
BBX 8 16 0 -3
BITMAP
00
7c
ba
c6
c6
c6
82
00
82
c6
c6
c6
ba
7c
00
00
ENDCHAR
STARTCHAR dec17
ENCODING 17
SWIDTH 800 0
DWIDTH 8 0
BBX 8 16 0 -3
BITMAP
00
00
02
06
06
06
02
00
02
06
06
06
02
00
00
00
ENDCHAR
STARTCHAR dec18
ENCODING 18
SWIDTH 800 0
DWIDTH 8 0
BBX 8 16 0 -3
BITMAP
00
7c
3a
06
06
06
3a
7c
b8
c0
c0
c0
b8
7c
00
00
ENDCHAR
STARTCHAR dec19
ENCODING 19
SWIDTH 800 0
DWIDTH 8 0
BBX 8 16 0 -3
BITMAP
00
7c
3a
06
06
06
3a
7c
3a
06
06
06
3a
7c
00
00
ENDCHAR
STARTCHAR dec20
ENCODING 20
SWIDTH 800 0
DWIDTH 8 0
BBX 8 16 0 -3
BITMAP
00
00
82
c6
c6
c6
ba
7c
3a
06
06
06
02
00
00
00
ENDCHAR
STARTCHAR dec21
ENCODING 21
SWIDTH 800 0
DWIDTH 8 0
BBX 8 16 0 -3
BITMAP
00
7c
b8
c0
c0
c0
b8
7c
3a
06
06
06
3a
7c
00
00
ENDCHAR
STARTCHAR dec22
ENCODING 22
SWIDTH 800 0
DWIDTH 8 0
BBX 8 16 0 -3
BITMAP
00
7c
b8
c0
c0
c0
b8
7c
ba
c6
c6
c6
ba
7c
00
00
ENDCHAR
STARTCHAR dec23
ENCODING 23
SWIDTH 800 0
DWIDTH 8 0
BBX 8 16 0 -3
BITMAP
00
7c
ba
c6
c6
c6
82
00
02
06
06
06
02
00
00
00
ENDCHAR
STARTCHAR dec24
ENCODING 24
SWIDTH 800 0
DWIDTH 8 0
BBX 8 16 0 -3
BITMAP
00
7c
ba
c6
c6
c6
ba
7c
ba
c6
c6
c6
ba
7c
00
00
ENDCHAR
STARTCHAR dec25
ENCODING 25
SWIDTH 800 0
DWIDTH 8 0
BBX 8 16 0 -3
BITMAP
00
7c
ba
c6
c6
c6
ba
7c
3a
06
06
06
3a
7c
00
00
ENDCHAR
STARTCHAR dec26
ENCODING 26
SWIDTH 800 0
DWIDTH 8 0
BBX 8 16 0 -3
BITMAP
00
00
00
00
00
7c
7e
06
06
7e
66
66
7e
3c
00
00
ENDCHAR
STARTCHAR dec27
ENCODING 27
SWIDTH 800 0
DWIDTH 8 0
BBX 8 16 0 -3
BITMAP
00
00
78
40
70
40
78
00
0e
10
0c
02
1c
00
00
00
ENDCHAR
STARTCHAR dec28
ENCODING 28
SWIDTH 800 0
DWIDTH 8 0
BBX 8 16 0 -3
BITMAP
00
00
00
00
00
00
00
00
07
0f
1f
18
18
10
1e
17
ENDCHAR
STARTCHAR dec29
ENCODING 29
SWIDTH 800 0
DWIDTH 8 0
BBX 8 16 0 -3
BITMAP
00
00
00
00
00
00
00
00
f0
f8
ec
04
04
04
3c
54
ENDCHAR
STARTCHAR dec30
ENCODING 30
SWIDTH 800 0
DWIDTH 8 0
BBX 8 16 0 -3
BITMAP
11
0b
0d
06
07
2e
39
38
00
00
00
00
00
00
00
00
ENDCHAR
STARTCHAR dec31
ENCODING 31
SWIDTH 800 0
DWIDTH 8 0
BBX 8 16 0 -3
BITMAP
04
28
d8
28
d0
10
e0
00
00
00
00
00
00
00
00
00
ENDCHAR
STARTCHAR dec32
ENCODING 32
SWIDTH 800 0
DWIDTH 8 0
BBX 8 16 0 -3
BITMAP
00
00
00
00
00
00
00
00
00
00
00
00
00
00
00
00
ENDCHAR
STARTCHAR dec33
ENCODING 33
SWIDTH 800 0
DWIDTH 8 0
BBX 8 16 0 -3
BITMAP
00
00
18
18
18
18
18
18
18
18
00
00
18
18
00
00
ENDCHAR
STARTCHAR dec34
ENCODING 34
SWIDTH 800 0
DWIDTH 8 0
BBX 8 16 0 -3
BITMAP
00
00
66
66
66
66
66
66
00
00
00
00
00
00
00
00
ENDCHAR
STARTCHAR dec35
ENCODING 35
SWIDTH 800 0
DWIDTH 8 0
BBX 8 16 0 -3
BITMAP
00
00
66
66
ff
ff
66
66
ff
ff
66
66
00
00
00
00
ENDCHAR
STARTCHAR dec36
ENCODING 36
SWIDTH 800 0
DWIDTH 8 0
BBX 8 16 0 -3
BITMAP
18
18
3e
7e
60
60
7c
3e
06
06
7e
7c
18
18
00
00
ENDCHAR
STARTCHAR dec37
ENCODING 37
SWIDTH 800 0
DWIDTH 8 0
BBX 8 16 0 -3
BITMAP
00
00
66
66
6c
0c
18
18
30
36
66
66
00
00
00
00
ENDCHAR
STARTCHAR dec38
ENCODING 38
SWIDTH 800 0
DWIDTH 8 0
BBX 8 16 0 -3
BITMAP
38
7c
6c
6c
38
38
70
70
de
de
cc
cc
fe
76
00
00
ENDCHAR
STARTCHAR dec39
ENCODING 39
SWIDTH 800 0
DWIDTH 8 0
BBX 8 16 0 -3
BITMAP
00
00
18
18
18
18
18
18
00
00
00
00
00
00
00
00
ENDCHAR
STARTCHAR dec40
ENCODING 40
SWIDTH 800 0
DWIDTH 8 0
BBX 8 16 0 -3
BITMAP
00
00
06
0c
1c
18
18
18
18
18
18
1c
0c
06
00
00
ENDCHAR
STARTCHAR dec41
ENCODING 41
SWIDTH 800 0
DWIDTH 8 0
BBX 8 16 0 -3
BITMAP
00
00
60
30
38
18
18
18
18
18
18
38
30
60
00
00
ENDCHAR
STARTCHAR dec42
ENCODING 42
SWIDTH 800 0
DWIDTH 8 0
BBX 8 16 0 -3
BITMAP
00
00
66
66
3c
3c
ff
ff
3c
3c
66
66
00
00
00
00
ENDCHAR
STARTCHAR dec43
ENCODING 43
SWIDTH 800 0
DWIDTH 8 0
BBX 8 16 0 -3
BITMAP
00
00
00
18
18
18
7e
7e
18
18
18
00
00
00
00
00
ENDCHAR
STARTCHAR dec44
ENCODING 44
SWIDTH 800 0
DWIDTH 8 0
BBX 8 16 0 -3
BITMAP
00
00
00
00
00
00
00
00
00
00
18
18
18
18
30
20
ENDCHAR
STARTCHAR dec45
ENCODING 45
SWIDTH 800 0
DWIDTH 8 0
BBX 8 16 0 -3
BITMAP
00
00
00
00
00
00
7e
7e
00
00
00
00
00
00
00
00
ENDCHAR
STARTCHAR dec46
ENCODING 46
SWIDTH 800 0
DWIDTH 8 0
BBX 8 16 0 -3
BITMAP
00
00
00
00
00
00
00
00
00
00
18
18
18
18
00
00
ENDCHAR
STARTCHAR dec47
ENCODING 47
SWIDTH 800 0
DWIDTH 8 0
BBX 8 16 0 -3
BITMAP
00
00
06
06
06
0c
0c
18
18
30
30
60
60
60
00
00
ENDCHAR
STARTCHAR dec48
ENCODING 48
SWIDTH 800 0
DWIDTH 8 0
BBX 8 16 0 -3
BITMAP
00
00
3c
7e
66
66
66
6e
76
66
66
66
7e
3c
00
00
ENDCHAR
STARTCHAR dec49
ENCODING 49
SWIDTH 800 0
DWIDTH 8 0
BBX 8 16 0 -3
BITMAP
00
00
18
18
38
38
18
18
18
18
18
18
7e
7e
00
00
ENDCHAR
STARTCHAR dec50
ENCODING 50
SWIDTH 800 0
DWIDTH 8 0
BBX 8 16 0 -3
BITMAP
00
00
3c
7e
66
66
0c
0c
18
18
30
30
7e
7e
00
00
ENDCHAR
STARTCHAR dec51
ENCODING 51
SWIDTH 800 0
DWIDTH 8 0
BBX 8 16 0 -3
BITMAP
00
00
7e
7e
0c
0c
18
18
0c
0c
66
66
7e
3c
00
00
ENDCHAR
STARTCHAR dec52
ENCODING 52
SWIDTH 800 0
DWIDTH 8 0
BBX 8 16 0 -3
BITMAP
00
00
0c
0c
1c
1c
3c
3c
6c
6c
7e
7e
0c
0c
00
00
ENDCHAR
STARTCHAR dec53
ENCODING 53
SWIDTH 800 0
DWIDTH 8 0
BBX 8 16 0 -3
BITMAP
00
00
7e
7e
60
60
7c
7e
06
06
06
66
7e
3c
00
00
ENDCHAR
STARTCHAR dec54
ENCODING 54
SWIDTH 800 0
DWIDTH 8 0
BBX 8 16 0 -3
BITMAP
00
00
1c
3c
70
60
60
7c
7e
66
66
66
7e
3c
00
00
ENDCHAR
STARTCHAR dec55
ENCODING 55
SWIDTH 800 0
DWIDTH 8 0
BBX 8 16 0 -3
BITMAP
00
00
7e
7e
06
06
0c
0c
18
18
30
30
30
30
00
00
ENDCHAR
STARTCHAR dec56
ENCODING 56
SWIDTH 800 0
DWIDTH 8 0
BBX 8 16 0 -3
BITMAP
00
00
3c
7e
66
66
3c
3c
66
66
66
66
7e
3c
00
00
ENDCHAR
STARTCHAR dec57
ENCODING 57
SWIDTH 800 0
DWIDTH 8 0
BBX 8 16 0 -3
BITMAP
00
00
3c
7e
66
66
7e
3e
06
06
06
0e
3c
38
00
00
ENDCHAR
STARTCHAR dec58
ENCODING 58
SWIDTH 800 0
DWIDTH 8 0
BBX 8 16 0 -3
BITMAP
00
00
00
00
18
18
18
18
00
00
18
18
18
18
00
00
ENDCHAR
STARTCHAR dec59
ENCODING 59
SWIDTH 800 0
DWIDTH 8 0
BBX 8 16 0 -3
BITMAP
00
00
00
00
18
18
18
18
00
00
18
18
18
18
30
20
ENDCHAR
STARTCHAR dec60
ENCODING 60
SWIDTH 800 0
DWIDTH 8 0
BBX 8 16 0 -3
BITMAP
00
00
00
0e
1c
38
70
e0
70
38
1c
0e
00
00
00
00
ENDCHAR
STARTCHAR dec61
ENCODING 61
SWIDTH 800 0
DWIDTH 8 0
BBX 8 16 0 -3
BITMAP
00
00
00
00
7e
7e
00
00
7e
7e
00
00
00
00
00
00
ENDCHAR
STARTCHAR dec62
ENCODING 62
SWIDTH 800 0
DWIDTH 8 0
BBX 8 16 0 -3
BITMAP
00
00
00
e0
70
38
1c
0e
1c
38
70
e0
00
00
00
00
ENDCHAR
STARTCHAR dec63
ENCODING 63
SWIDTH 800 0
DWIDTH 8 0
BBX 8 16 0 -3
BITMAP
00
00
3c
7e
66
66
0c
0c
18
18
18
00
18
18
00
00
ENDCHAR
STARTCHAR dec64
ENCODING 64
SWIDTH 800 0
DWIDTH 8 0
BBX 8 16 0 -3
BITMAP
00
00
38
7c
e6
c2
da
d6
d6
dc
c0
e2
7e
3c
00
00
ENDCHAR
STARTCHAR dec65
ENCODING 65
SWIDTH 800 0
DWIDTH 8 0
BBX 8 16 0 -3
BITMAP
00
00
18
3c
7e
66
66
66
7e
7e
66
66
66
66
00
00
ENDCHAR
STARTCHAR dec66
ENCODING 66
SWIDTH 800 0
DWIDTH 8 0
BBX 8 16 0 -3
BITMAP
00
00
7c
7e
66
66
7e
7c
66
66
66
66
7e
7c
00
00
ENDCHAR
STARTCHAR dec67
ENCODING 67
SWIDTH 800 0
DWIDTH 8 0
BBX 8 16 0 -3
BITMAP
00
00
3c
7e
66
66
60
60
60
60
66
66
7e
3c
00
00
ENDCHAR
STARTCHAR dec68
ENCODING 68
SWIDTH 800 0
DWIDTH 8 0
BBX 8 16 0 -3
BITMAP
00
00
78
7c
6e
66
66
66
66
66
66
6e
7c
78
00
00
ENDCHAR
STARTCHAR dec69
ENCODING 69
SWIDTH 800 0
DWIDTH 8 0
BBX 8 16 0 -3
BITMAP
00
00
7e
7e
60
60
7c
7c
60
60
60
60
7e
7e
00
00
ENDCHAR
STARTCHAR dec70
ENCODING 70
SWIDTH 800 0
DWIDTH 8 0
BBX 8 16 0 -3
BITMAP
00
00
7e
7e
60
60
7c
7c
60
60
60
60
60
60
00
00
ENDCHAR
STARTCHAR dec71
ENCODING 71
SWIDTH 800 0
DWIDTH 8 0
BBX 8 16 0 -3
BITMAP
00
00
3e
7e
60
60
6e
6e
66
66
66
66
7e
3c
00
00
ENDCHAR
STARTCHAR dec72
ENCODING 72
SWIDTH 800 0
DWIDTH 8 0
BBX 8 16 0 -3
BITMAP
00
00
66
66
66
66
7e
7e
66
66
66
66
66
66
00
00
ENDCHAR
STARTCHAR dec73
ENCODING 73
SWIDTH 800 0
DWIDTH 8 0
BBX 8 16 0 -3
BITMAP
00
00
7e
7e
18
18
18
18
18
18
18
18
7e
7e
00
00
ENDCHAR
STARTCHAR dec74
ENCODING 74
SWIDTH 800 0
DWIDTH 8 0
BBX 8 16 0 -3
BITMAP
00
00
06
06
06
06
06
06
06
06
66
66
7e
3c
00
00
ENDCHAR
STARTCHAR dec75
ENCODING 75
SWIDTH 800 0
DWIDTH 8 0
BBX 8 16 0 -3
BITMAP
00
00
cc
cc
d8
d8
f0
f0
d8
d8
cc
cc
c6
c6
00
00
ENDCHAR
STARTCHAR dec76
ENCODING 76
SWIDTH 800 0
DWIDTH 8 0
BBX 8 16 0 -3
BITMAP
00
00
60
60
60
60
60
60
60
60
60
60
7e
7e
00
00
ENDCHAR
STARTCHAR dec77
ENCODING 77
SWIDTH 800 0
DWIDTH 8 0
BBX 8 16 0 -3
BITMAP
00
00
c6
c6
ee
ee
fe
d6
d6
c6
c6
c6
c6
c6
00
00
ENDCHAR
STARTCHAR dec78
ENCODING 78
SWIDTH 800 0
DWIDTH 8 0
BBX 8 16 0 -3
BITMAP
00
00
66
66
66
76
76
7e
7e
6e
6e
66
66
66
00
00
ENDCHAR
STARTCHAR dec79
ENCODING 79
SWIDTH 800 0
DWIDTH 8 0
BBX 8 16 0 -3
BITMAP
00
00
3c
7e
66
66
66
66
66
66
66
66
7e
3c
00
00
ENDCHAR
STARTCHAR dec80
ENCODING 80
SWIDTH 800 0
DWIDTH 8 0
BBX 8 16 0 -3
BITMAP
00
00
7c
7e
66
66
66
66
7e
7c
60
60
60
60
00
00
ENDCHAR
STARTCHAR dec81
ENCODING 81
SWIDTH 800 0
DWIDTH 8 0
BBX 8 16 0 -3
BITMAP
00
00
3c
7e
66
66
66
66
66
66
66
6a
7c
36
00
00
ENDCHAR
STARTCHAR dec82
ENCODING 82
SWIDTH 800 0
DWIDTH 8 0
BBX 8 16 0 -3
BITMAP
00
00
f8
fc
cc
cc
cc
fc
f8
d8
cc
cc
c6
c6
00
00
ENDCHAR
STARTCHAR dec83
ENCODING 83
SWIDTH 800 0
DWIDTH 8 0
BBX 8 16 0 -3
BITMAP
00
00
3e
7e
60
60
70
38
1c
0e
06
06
7e
7c
00
00
ENDCHAR
STARTCHAR dec84
ENCODING 84
SWIDTH 800 0
DWIDTH 8 0
BBX 8 16 0 -3
BITMAP
00
00
7e
7e
18
18
18
18
18
18
18
18
18
18
00
00
ENDCHAR
STARTCHAR dec85
ENCODING 85
SWIDTH 800 0
DWIDTH 8 0
BBX 8 16 0 -3
BITMAP
00
00
66
66
66
66
66
66
66
66
66
66
7e
3c
00
00
ENDCHAR
STARTCHAR dec86
ENCODING 86
SWIDTH 800 0
DWIDTH 8 0
BBX 8 16 0 -3
BITMAP
00
00
66
66
66
66
66
66
66
66
3c
3c
18
18
00
00
ENDCHAR
STARTCHAR dec87
ENCODING 87
SWIDTH 800 0
DWIDTH 8 0
BBX 8 16 0 -3
BITMAP
00
00
c6
c6
c6
c6
c6
d6
d6
fe
fe
ee
c6
82
00
00
ENDCHAR
STARTCHAR dec88
ENCODING 88
SWIDTH 800 0
DWIDTH 8 0
BBX 8 16 0 -3
BITMAP
00
00
66
66
66
3c
3c
18
18
3c
3c
66
66
66
00
00
ENDCHAR
STARTCHAR dec89
ENCODING 89
SWIDTH 800 0
DWIDTH 8 0
BBX 8 16 0 -3
BITMAP
00
00
66
66
66
66
3c
3c
18
18
18
18
18
18
00
00
ENDCHAR
STARTCHAR dec90
ENCODING 90
SWIDTH 800 0
DWIDTH 8 0
BBX 8 16 0 -3
BITMAP
00
00
7e
7e
0c
0c
18
18
30
30
60
60
7e
7e
00
00
ENDCHAR
STARTCHAR dec91
ENCODING 91
SWIDTH 800 0
DWIDTH 8 0
BBX 8 16 0 -3
BITMAP
00
00
1e
1e
18
18
18
18
18
18
18
18
1e
1e
00
00
ENDCHAR
STARTCHAR dec92
ENCODING 92
SWIDTH 800 0
DWIDTH 8 0
BBX 8 16 0 -3
BITMAP
00
00
60
60
60
30
30
18
18
0c
0c
06
06
06
00
00
ENDCHAR
STARTCHAR dec93
ENCODING 93
SWIDTH 800 0
DWIDTH 8 0
BBX 8 16 0 -3
BITMAP
00
00
78
78
18
18
18
18
18
18
18
18
78
78
00
00
ENDCHAR
STARTCHAR dec94
ENCODING 94
SWIDTH 800 0
DWIDTH 8 0
BBX 8 16 0 -3
BITMAP
00
10
10
38
38
6c
6c
c6
c6
00
00
00
00
00
00
00
ENDCHAR
STARTCHAR dec95
ENCODING 95
SWIDTH 800 0
DWIDTH 8 0
BBX 8 16 0 -3
BITMAP
00
00
00
00
00
00
00
00
00
00
00
00
fe
fe
00
00
ENDCHAR
STARTCHAR dec96
ENCODING 96
SWIDTH 800 0
DWIDTH 8 0
BBX 8 16 0 -3
BITMAP
40
60
70
38
1c
0c
04
00
00
00
00
00
00
00
00
00
ENDCHAR
STARTCHAR dec97
ENCODING 97
SWIDTH 800 0
DWIDTH 8 0
BBX 8 16 0 -3
BITMAP
00
00
00
00
00
3c
3e
06
3e
7e
66
66
7e
3e
00
00
ENDCHAR
STARTCHAR dec98
ENCODING 98
SWIDTH 800 0
DWIDTH 8 0
BBX 8 16 0 -3
BITMAP
00
00
60
60
60
7c
7e
66
66
66
66
66
7e
7c
00
00
ENDCHAR
STARTCHAR dec99
ENCODING 99
SWIDTH 800 0
DWIDTH 8 0
BBX 8 16 0 -3
BITMAP
00
00
00
00
00
3c
7c
60
60
60
60
60
7e
3e
00
00
ENDCHAR
STARTCHAR dec100
ENCODING 100
SWIDTH 800 0
DWIDTH 8 0
BBX 8 16 0 -3
BITMAP
00
00
06
06
06
3e
7e
66
66
66
66
66
7e
3e
00
00
ENDCHAR
STARTCHAR dec101
ENCODING 101
SWIDTH 800 0
DWIDTH 8 0
BBX 8 16 0 -3
BITMAP
00
00
00
00
00
3c
7e
66
66
7e
60
60
7e
3e
00
00
ENDCHAR
STARTCHAR dec102
ENCODING 102
SWIDTH 800 0
DWIDTH 8 0
BBX 8 16 0 -3
BITMAP
00
00
0e
1e
18
18
7e
7e
18
18
18
18
18
18
00
00
ENDCHAR
STARTCHAR dec103
ENCODING 103
SWIDTH 800 0
DWIDTH 8 0
BBX 8 16 0 -3
BITMAP
00
00
00
00
00
3e
7e
66
66
66
66
7e
3e
06
7e
7c
ENDCHAR
STARTCHAR dec104
ENCODING 104
SWIDTH 800 0
DWIDTH 8 0
BBX 8 16 0 -3
BITMAP
00
00
60
60
60
7c
7e
66
66
66
66
66
66
66
00
00
ENDCHAR
STARTCHAR dec105
ENCODING 105
SWIDTH 800 0
DWIDTH 8 0
BBX 8 16 0 -3
BITMAP
00
00
18
18
00
38
38
18
18
18
18
18
3c
3c
00
00
ENDCHAR
STARTCHAR dec106
ENCODING 106
SWIDTH 800 0
DWIDTH 8 0
BBX 8 16 0 -3
BITMAP
00
00
0c
0c
00
0c
0c
0c
0c
0c
0c
0c
0c
0c
7c
78
ENDCHAR
STARTCHAR dec107
ENCODING 107
SWIDTH 800 0
DWIDTH 8 0
BBX 8 16 0 -3
BITMAP
00
00
c0
c0
c0
cc
dc
f8
f0
f8
d8
cc
ce
c6
00
00
ENDCHAR
STARTCHAR dec108
ENCODING 108
SWIDTH 800 0
DWIDTH 8 0
BBX 8 16 0 -3
BITMAP
00
00
38
38
18
18
18
18
18
18
18
18
3c
3c
00
00
ENDCHAR
STARTCHAR dec109
ENCODING 109
SWIDTH 800 0
DWIDTH 8 0
BBX 8 16 0 -3
BITMAP
00
00
00
00
00
6c
fe
fe
d6
d6
d6
c6
c6
c6
00
00
ENDCHAR
STARTCHAR dec110
ENCODING 110
SWIDTH 800 0
DWIDTH 8 0
BBX 8 16 0 -3
BITMAP
00
00
00
00
00
3c
7e
66
66
66
66
66
66
66
00
00
ENDCHAR
STARTCHAR dec111
ENCODING 111
SWIDTH 800 0
DWIDTH 8 0
BBX 8 16 0 -3
BITMAP
00
00
00
00
00
3c
7e
66
66
66
66
66
7e
3c
00
00
ENDCHAR
STARTCHAR dec112
ENCODING 112
SWIDTH 800 0
DWIDTH 8 0
BBX 8 16 0 -3
BITMAP
00
00
00
00
00
7c
7e
66
66
66
66
66
7e
7c
60
60
ENDCHAR
STARTCHAR dec113
ENCODING 113
SWIDTH 800 0
DWIDTH 8 0
BBX 8 16 0 -3
BITMAP
00
00
00
00
00
3e
7e
66
66
66
66
66
7e
3e
06
06
ENDCHAR
STARTCHAR dec114
ENCODING 114
SWIDTH 800 0
DWIDTH 8 0
BBX 8 16 0 -3
BITMAP
00
00
00
00
00
7c
7e
66
60
60
60
60
60
60
00
00
ENDCHAR
STARTCHAR dec115
ENCODING 115
SWIDTH 800 0
DWIDTH 8 0
BBX 8 16 0 -3
BITMAP
00
00
00
00
00
3e
7e
60
70
3c
0e
06
7e
7c
00
00
ENDCHAR
STARTCHAR dec116
ENCODING 116
SWIDTH 800 0
DWIDTH 8 0
BBX 8 16 0 -3
BITMAP
00
00
00
18
18
7e
7e
18
18
18
18
18
1e
0e
00
00
ENDCHAR
STARTCHAR dec117
ENCODING 117
SWIDTH 800 0
DWIDTH 8 0
BBX 8 16 0 -3
BITMAP
00
00
00
00
00
66
66
66
66
66
66
66
7e
3e
00
00
ENDCHAR
STARTCHAR dec118
ENCODING 118
SWIDTH 800 0
DWIDTH 8 0
BBX 8 16 0 -3
BITMAP
00
00
00
00
00
66
66
66
66
66
3c
3c
18
18
00
00
ENDCHAR
STARTCHAR dec119
ENCODING 119
SWIDTH 800 0
DWIDTH 8 0
BBX 8 16 0 -3
BITMAP
00
00
00
00
00
c6
c6
d6
d6
fe
fe
ee
c6
82
00
00
ENDCHAR
STARTCHAR dec120
ENCODING 120
SWIDTH 800 0
DWIDTH 8 0
BBX 8 16 0 -3
BITMAP
00
00
00
00
00
66
66
3c
3c
18
3c
3c
66
66
00
00
ENDCHAR
STARTCHAR dec121
ENCODING 121
SWIDTH 800 0
DWIDTH 8 0
BBX 8 16 0 -3
BITMAP
00
00
00
00
00
66
66
66
66
66
66
7e
3e
06
7e
7c
ENDCHAR
STARTCHAR dec122
ENCODING 122
SWIDTH 800 0
DWIDTH 8 0
BBX 8 16 0 -3
BITMAP
00
00
00
00
00
7e
7e
0c
18
18
30
30
7e
7e
00
00
ENDCHAR
STARTCHAR dec123
ENCODING 123
SWIDTH 800 0
DWIDTH 8 0
BBX 8 16 0 -3
BITMAP
00
0e
18
18
18
18
38
f0
f0
38
18
18
18
18
0e
00
ENDCHAR
STARTCHAR dec124
ENCODING 124
SWIDTH 800 0
DWIDTH 8 0
BBX 8 16 0 -3
BITMAP
00
18
18
18
18
18
18
18
18
18
18
18
18
18
18
00
ENDCHAR
STARTCHAR dec125
ENCODING 125
SWIDTH 800 0
DWIDTH 8 0
BBX 8 16 0 -3
BITMAP
00
e0
30
30
30
30
38
1e
1e
38
30
30
30
30
e0
00
ENDCHAR
STARTCHAR dec126
ENCODING 126
SWIDTH 800 0
DWIDTH 8 0
BBX 8 16 0 -3
BITMAP
00
00
00
00
00
62
f2
be
9c
00
00
00
00
00
00
00
ENDCHAR
STARTCHAR dec127
ENCODING 127
SWIDTH 800 0
DWIDTH 8 0
BBX 8 16 0 -3
BITMAP
00
00
00
00
00
18
18
3c
24
66
42
c3
ff
00
00
00
ENDCHAR
STARTCHAR dec128
ENCODING 128
SWIDTH 800 0
DWIDTH 8 0
BBX 8 16 0 -3
BITMAP
00
00
3c
7e
66
66
60
60
60
60
66
66
7e
3c
0c
38
ENDCHAR
STARTCHAR dec129
ENCODING 129
SWIDTH 800 0
DWIDTH 8 0
BBX 8 16 0 -3
BITMAP
00
00
66
66
00
66
66
66
66
66
66
66
7e
3e
00
00
ENDCHAR
STARTCHAR dec130
ENCODING 130
SWIDTH 800 0
DWIDTH 8 0
BBX 8 16 0 -3
BITMAP
00
06
0c
18
00
3c
7e
66
66
7e
60
60
7e
3e
00
00
ENDCHAR
STARTCHAR dec131
ENCODING 131
SWIDTH 800 0
DWIDTH 8 0
BBX 8 16 0 -3
BITMAP
00
18
3c
66
00
3c
3e
06
3e
7e
66
66
7e
3e
00
00
ENDCHAR
STARTCHAR dec132
ENCODING 132
SWIDTH 800 0
DWIDTH 8 0
BBX 8 16 0 -3
BITMAP
00
00
66
66
00
3c
3e
06
3e
7e
66
66
7e
3e
00
00
ENDCHAR
STARTCHAR dec133
ENCODING 133
SWIDTH 800 0
DWIDTH 8 0
BBX 8 16 0 -3
BITMAP
00
60
30
18
00
3c
3e
06
3e
7e
66
66
7e
3e
00
00
ENDCHAR
STARTCHAR dec134
ENCODING 134
SWIDTH 800 0
DWIDTH 8 0
BBX 8 16 0 -3
BITMAP
00
1c
36
1c
00
3c
3e
06
3e
7e
66
66
7e
3e
00
00
ENDCHAR
STARTCHAR dec135
ENCODING 135
SWIDTH 800 0
DWIDTH 8 0
BBX 8 16 0 -3
BITMAP
00
00
00
00
00
3c
7c
60
60
60
60
60
7e
3e
0c
38
ENDCHAR
STARTCHAR dec136
ENCODING 136
SWIDTH 800 0
DWIDTH 8 0
BBX 8 16 0 -3
BITMAP
00
18
3c
66
00
3c
7e
66
66
7e
60
60
7e
3e
00
00
ENDCHAR
STARTCHAR dec137
ENCODING 137
SWIDTH 800 0
DWIDTH 8 0
BBX 8 16 0 -3
BITMAP
00
00
66
66
00
3c
7e
66
66
7e
60
60
7e
3e
00
00
ENDCHAR
STARTCHAR dec138
ENCODING 138
SWIDTH 800 0
DWIDTH 8 0
BBX 8 16 0 -3
BITMAP
00
60
30
18
00
3c
7e
66
66
7e
60
60
7e
3e
00
00
ENDCHAR
STARTCHAR dec139
ENCODING 139
SWIDTH 800 0
DWIDTH 8 0
BBX 8 16 0 -3
BITMAP
00
00
66
66
00
38
38
18
18
18
18
18
3c
3c
00
00
ENDCHAR
STARTCHAR dec140
ENCODING 140
SWIDTH 800 0
DWIDTH 8 0
BBX 8 16 0 -3
BITMAP
00
18
3c
66
00
38
38
18
18
18
18
18
3c
3c
00
00
ENDCHAR
STARTCHAR dec141
ENCODING 141
SWIDTH 800 0
DWIDTH 8 0
BBX 8 16 0 -3
BITMAP
00
60
30
18
00
38
38
18
18
18
18
18
3c
3c
00
00
ENDCHAR
STARTCHAR dec142
ENCODING 142
SWIDTH 800 0
DWIDTH 8 0
BBX 8 16 0 -3
BITMAP
00
66
66
18
3c
7e
66
66
7e
7e
66
66
66
66
00
00
ENDCHAR
STARTCHAR dec143
ENCODING 143
SWIDTH 800 0
DWIDTH 8 0
BBX 8 16 0 -3
BITMAP
3c
66
3c
18
3c
7e
66
66
7e
7e
66
66
66
66
00
00
ENDCHAR
STARTCHAR dec144
ENCODING 144
SWIDTH 800 0
DWIDTH 8 0
BBX 8 16 0 -3
BITMAP
06
0c
18
7e
7e
60
60
7c
7c
60
60
60
7e
7e
00
00
ENDCHAR
STARTCHAR dec145
ENCODING 145
SWIDTH 800 0
DWIDTH 8 0
BBX 8 16 0 -3
BITMAP
00
00
00
00
00
76
7f
1b
7b
ff
d8
d8
ff
7f
00
00
ENDCHAR
STARTCHAR dec146
ENCODING 146
SWIDTH 800 0
DWIDTH 8 0
BBX 8 16 0 -3
BITMAP
00
3e
7e
f8
d8
d8
de
de
f8
f8
d8
d8
de
de
00
00
ENDCHAR
STARTCHAR dec147
ENCODING 147
SWIDTH 800 0
DWIDTH 8 0
BBX 8 16 0 -3
BITMAP
00
18
3c
66
00
3c
7e
66
66
66
66
66
7e
3c
00
00
ENDCHAR
STARTCHAR dec148
ENCODING 148
SWIDTH 800 0
DWIDTH 8 0
BBX 8 16 0 -3
BITMAP
00
00
66
66
00
3c
7e
66
66
66
66
66
7e
3c
00
00
ENDCHAR
STARTCHAR dec149
ENCODING 149
SWIDTH 800 0
DWIDTH 8 0
BBX 8 16 0 -3
BITMAP
00
60
30
18
00
3c
7e
66
66
66
66
66
7e
3c
00
00
ENDCHAR
STARTCHAR dec150
ENCODING 150
SWIDTH 800 0
DWIDTH 8 0
BBX 8 16 0 -3
BITMAP
00
18
3c
66
00
66
66
66
66
66
66
66
7e
3e
00
00
ENDCHAR
STARTCHAR dec151
ENCODING 151
SWIDTH 800 0
DWIDTH 8 0
BBX 8 16 0 -3
BITMAP
00
60
30
18
00
66
66
66
66
66
66
66
7e
3e
00
00
ENDCHAR
STARTCHAR dec152
ENCODING 152
SWIDTH 800 0
DWIDTH 8 0
BBX 8 16 0 -3
BITMAP
00
00
66
66
00
66
66
66
66
66
66
7e
3e
06
7e
7c
ENDCHAR
STARTCHAR dec153
ENCODING 153
SWIDTH 800 0
DWIDTH 8 0
BBX 8 16 0 -3
BITMAP
00
66
66
00
3c
7e
66
66
66
66
66
66
7e
3c
00
00
ENDCHAR
STARTCHAR dec154
ENCODING 154
SWIDTH 800 0
DWIDTH 8 0
BBX 8 16 0 -3
BITMAP
00
66
66
00
66
66
66
66
66
66
66
66
7e
3c
00
00
ENDCHAR
STARTCHAR dec155
ENCODING 155
SWIDTH 800 0
DWIDTH 8 0
BBX 8 16 0 -3
BITMAP
00
00
18
18
3c
7e
66
60
60
66
7e
3c
18
18
00
00
ENDCHAR
STARTCHAR dec156
ENCODING 156
SWIDTH 800 0
DWIDTH 8 0
BBX 8 16 0 -3
BITMAP
00
0e
1e
38
30
30
30
30
fe
30
30
30
7f
ff
00
00
ENDCHAR
STARTCHAR dec157
ENCODING 157
SWIDTH 800 0
DWIDTH 8 0
BBX 8 16 0 -3
BITMAP
00
00
66
66
66
66
7e
3c
18
7e
18
18
18
18
00
00
ENDCHAR
STARTCHAR dec158
ENCODING 158
SWIDTH 800 0
DWIDTH 8 0
BBX 8 16 0 -3
BITMAP
00
00
18
3c
66
66
66
7c
66
66
66
7c
6c
60
40
00
ENDCHAR
STARTCHAR dec159
ENCODING 159
SWIDTH 800 0
DWIDTH 8 0
BBX 8 16 0 -3
BITMAP
00
00
0e
1e
18
18
18
7e
18
18
18
18
18
70
60
00
ENDCHAR
STARTCHAR dec160
ENCODING 160
SWIDTH 800 0
DWIDTH 8 0
BBX 8 16 0 -3
BITMAP
00
06
0c
18
00
3c
3e
06
3e
7e
66
66
7e
3e
00
00
ENDCHAR
STARTCHAR dec161
ENCODING 161
SWIDTH 800 0
DWIDTH 8 0
BBX 8 16 0 -3
BITMAP
00
06
0c
18
00
38
38
18
18
18
18
18
3c
3c
00
00
ENDCHAR
STARTCHAR dec162
ENCODING 162
SWIDTH 800 0
DWIDTH 8 0
BBX 8 16 0 -3
BITMAP
00
06
0c
18
00
3c
7e
66
66
66
66
66
7e
3c
00
00
ENDCHAR
STARTCHAR dec163
ENCODING 163
SWIDTH 800 0
DWIDTH 8 0
BBX 8 16 0 -3
BITMAP
00
06
0c
18
00
66
66
66
66
66
66
66
7e
3e
00
00
ENDCHAR
STARTCHAR dec164
ENCODING 164
SWIDTH 800 0
DWIDTH 8 0
BBX 8 16 0 -3
BITMAP
00
32
7a
4c
00
3c
7e
66
66
66
66
66
66
66
00
00
ENDCHAR
STARTCHAR dec165
ENCODING 165
SWIDTH 800 0
DWIDTH 8 0
BBX 8 16 0 -3
BITMAP
00
32
7a
4c
00
66
66
76
7e
7e
6e
66
66
66
00
00
ENDCHAR
STARTCHAR dec166
ENCODING 166
SWIDTH 800 0
DWIDTH 8 0
BBX 8 16 0 -3
BITMAP
00
00
00
00
3c
3e
06
3e
7e
66
66
7e
3e
00
7e
00
ENDCHAR
STARTCHAR dec167
ENCODING 167
SWIDTH 800 0
DWIDTH 8 0
BBX 8 16 0 -3
BITMAP
00
00
00
00
3c
7e
66
66
66
66
66
7e
3c
00
7e
00
ENDCHAR
STARTCHAR dec168
ENCODING 168
SWIDTH 800 0
DWIDTH 8 0
BBX 8 16 0 -3
BITMAP
00
00
18
18
00
18
18
18
30
30
66
66
7e
3c
00
00
ENDCHAR
STARTCHAR dec169
ENCODING 169
SWIDTH 800 0
DWIDTH 8 0
BBX 8 16 0 -3
BITMAP
00
00
00
00
00
00
00
00
00
7e
7e
60
60
60
00
00
ENDCHAR
STARTCHAR dec170
ENCODING 170
SWIDTH 800 0
DWIDTH 8 0
BBX 8 16 0 -3
BITMAP
00
00
00
00
00
00
00
00
00
7e
7e
06
06
06
00
00
ENDCHAR
STARTCHAR dec171
ENCODING 171
SWIDTH 800 0
DWIDTH 8 0
BBX 8 16 0 -3
BITMAP
00
60
20
20
23
26
2c
18
30
6e
d3
06
0c
18
1f
00
ENDCHAR
STARTCHAR dec172
ENCODING 172
SWIDTH 800 0
DWIDTH 8 0
BBX 8 16 0 -3
BITMAP
00
60
20
20
23
26
2c
18
32
66
ce
1a
32
3f
02
00
ENDCHAR
STARTCHAR dec173
ENCODING 173
SWIDTH 800 0
DWIDTH 8 0
BBX 8 16 0 -3
BITMAP
00
00
00
18
18
00
18
18
18
18
18
18
18
18
18
00
ENDCHAR
STARTCHAR dec174
ENCODING 174
SWIDTH 800 0
DWIDTH 8 0
BBX 8 16 0 -3
BITMAP
00
00
00
00
00
00
1a
36
6c
d8
6c
36
1a
00
00
00
ENDCHAR
STARTCHAR dec175
ENCODING 175
SWIDTH 800 0
DWIDTH 8 0
BBX 8 16 0 -3
BITMAP
00
00
00
00
00
00
b0
d8
6c
36
6c
d8
b0
00
00
00
ENDCHAR
STARTCHAR dec176
ENCODING 176
SWIDTH 800 0
DWIDTH 8 0
BBX 8 16 0 -3
BITMAP
00
32
7a
4c
00
3c
3e
06
3e
7e
66
66
7e
3e
00
00
ENDCHAR
STARTCHAR dec177
ENCODING 177
SWIDTH 800 0
DWIDTH 8 0
BBX 8 16 0 -3
BITMAP
00
32
7a
4c
00
3c
7e
66
66
66
66
66
7e
3c
00
00
ENDCHAR
STARTCHAR dec178
ENCODING 178
SWIDTH 800 0
DWIDTH 8 0
BBX 8 16 0 -3
BITMAP
00
01
3d
7e
66
66
6e
6e
76
76
66
66
7e
bc
80
00
ENDCHAR
STARTCHAR dec179
ENCODING 179
SWIDTH 800 0
DWIDTH 8 0
BBX 8 16 0 -3
BITMAP
00
00
00
00
01
3d
7e
66
6e
7e
76
66
7e
bc
80
00
ENDCHAR
STARTCHAR dec180
ENCODING 180
SWIDTH 800 0
DWIDTH 8 0
BBX 8 16 0 -3
BITMAP
00
00
00
00
00
7e
ff
db
db
df
d8
d8
ff
7f
00
00
ENDCHAR
STARTCHAR dec181
ENCODING 181
SWIDTH 800 0
DWIDTH 8 0
BBX 8 16 0 -3
BITMAP
00
00
7e
fe
d8
d8
de
de
d8
d8
d8
d8
fe
7e
00
00
ENDCHAR
STARTCHAR dec182
ENCODING 182
SWIDTH 800 0
DWIDTH 8 0
BBX 8 16 0 -3
BITMAP
60
30
18
00
3c
7e
66
66
7e
7e
66
66
66
66
00
00
ENDCHAR
STARTCHAR dec183
ENCODING 183
SWIDTH 800 0
DWIDTH 8 0
BBX 8 16 0 -3
BITMAP
32
7a
4c
00
3c
7e
66
66
7e
7e
66
66
66
66
00
00
ENDCHAR
STARTCHAR dec184
ENCODING 184
SWIDTH 800 0
DWIDTH 8 0
BBX 8 16 0 -3
BITMAP
32
7a
4c
00
3c
7e
66
66
66
66
66
66
7e
3c
00
00
ENDCHAR
STARTCHAR dec185
ENCODING 185
SWIDTH 800 0
DWIDTH 8 0
BBX 8 16 0 -3
BITMAP
00
66
66
00
00
00
00
00
00
00
00
00
00
00
00
00
ENDCHAR
STARTCHAR dec186
ENCODING 186
SWIDTH 800 0
DWIDTH 8 0
BBX 8 16 0 -3
BITMAP
00
06
0c
18
00
00
00
00
00
00
00
00
00
00
00
00
ENDCHAR
STARTCHAR dec187
ENCODING 187
SWIDTH 800 0
DWIDTH 8 0
BBX 8 16 0 -3
BITMAP
00
10
7c
10
10
10
10
10
00
00
00
00
00
00
00
00
ENDCHAR
STARTCHAR dec188
ENCODING 188
SWIDTH 800 0
DWIDTH 8 0
BBX 8 16 0 -3
BITMAP
00
00
7a
ca
ca
ca
ca
ca
7a
0a
0a
0a
0a
0a
00
00
ENDCHAR
STARTCHAR dec189
ENCODING 189
SWIDTH 800 0
DWIDTH 8 0
BBX 8 16 0 -3
BITMAP
00
00
7c
c6
82
ba
a2
a2
a2
ba
82
c6
7c
00
00
00
ENDCHAR
STARTCHAR dec190
ENCODING 190
SWIDTH 800 0
DWIDTH 8 0
BBX 8 16 0 -3
BITMAP
00
00
7c
c6
82
ba
aa
b2
ba
aa
82
c6
7c
00
00
00
ENDCHAR
STARTCHAR dec191
ENCODING 191
SWIDTH 800 0
DWIDTH 8 0
BBX 8 16 0 -3
BITMAP
f1
5b
5f
55
51
00
00
00
00
00
00
00
00
00
00
00
ENDCHAR
STARTCHAR dec192
ENCODING 192
SWIDTH 800 0
DWIDTH 8 0
BBX 8 16 0 -3
BITMAP
00
66
66
00
e6
66
66
66
66
66
66
66
f6
0e
3c
38
ENDCHAR
STARTCHAR dec193
ENCODING 193
SWIDTH 800 0
DWIDTH 8 0
BBX 8 16 0 -3
BITMAP
f6
f6
66
66
66
66
66
66
66
66
66
f6
f6
0e
7c
78
ENDCHAR
STARTCHAR dec194
ENCODING 194
SWIDTH 800 0
DWIDTH 8 0
BBX 8 16 0 -3
BITMAP
00
00
66
76
76
3e
3c
3c
6e
6e
66
62
00
00
00
00
ENDCHAR
STARTCHAR dec195
ENCODING 195
SWIDTH 800 0
DWIDTH 8 0
BBX 8 16 0 -3
BITMAP
00
00
7c
7c
0c
0c
0c
0c
0c
0c
7e
7e
00
00
00
00
ENDCHAR
STARTCHAR dec196
ENCODING 196
SWIDTH 800 0
DWIDTH 8 0
BBX 8 16 0 -3
BITMAP
00
00
1e
1e
06
06
0e
1e
36
36
36
36
00
00
00
00
ENDCHAR
STARTCHAR dec197
ENCODING 197
SWIDTH 800 0
DWIDTH 8 0
BBX 8 16 0 -3
BITMAP
00
00
7e
7e
0c
0c
0c
0c
0c
0c
0c
0c
00
00
00
00
ENDCHAR
STARTCHAR dec198
ENCODING 198
SWIDTH 800 0
DWIDTH 8 0
BBX 8 16 0 -3
BITMAP
00
00
7e
7e
06
66
66
66
66
66
66
66
00
00
00
00
ENDCHAR
STARTCHAR dec199
ENCODING 199
SWIDTH 800 0
DWIDTH 8 0
BBX 8 16 0 -3
BITMAP
00
00
38
38
18
18
18
18
18
18
18
18
00
00
00
00
ENDCHAR
STARTCHAR dec200
ENCODING 200
SWIDTH 800 0
DWIDTH 8 0
BBX 8 16 0 -3
BITMAP
00
00
1e
1e
04
0c
0c
0c
0c
0c
0c
04
00
00
00
00
ENDCHAR
STARTCHAR dec201
ENCODING 201
SWIDTH 800 0
DWIDTH 8 0
BBX 8 16 0 -3
BITMAP
00
00
7e
7e
66
66
66
66
66
66
66
66
00
00
00
00
ENDCHAR
STARTCHAR dec202
ENCODING 202
SWIDTH 800 0
DWIDTH 8 0
BBX 8 16 0 -3
BITMAP
00
00
6e
6e
66
66
66
66
66
66
7e
7e
00
00
00
00
ENDCHAR
STARTCHAR dec203
ENCODING 203
SWIDTH 800 0
DWIDTH 8 0
BBX 8 16 0 -3
BITMAP
00
00
3c
3c
0c
0c
00
00
00
00
00
00
00
00
00
00
ENDCHAR
STARTCHAR dec204
ENCODING 204
SWIDTH 800 0
DWIDTH 8 0
BBX 8 16 0 -3
BITMAP
00
00
3c
3e
06
06
06
06
06
06
3e
3c
00
00
00
00
ENDCHAR
STARTCHAR dec205
ENCODING 205
SWIDTH 800 0
DWIDTH 8 0
BBX 8 16 0 -3
BITMAP
60
60
7e
7e
06
06
06
0e
1c
30
30
30
00
00
00
00
ENDCHAR
STARTCHAR dec206
ENCODING 206
SWIDTH 800 0
DWIDTH 8 0
BBX 8 16 0 -3
BITMAP
00
00
6c
6e
3e
36
66
66
66
6e
6e
6e
00
00
00
00
ENDCHAR
STARTCHAR dec207
ENCODING 207
SWIDTH 800 0
DWIDTH 8 0
BBX 8 16 0 -3
BITMAP
00
00
1c
1c
0c
0c
0c
0c
0c
0c
7c
7c
00
00
00
00
ENDCHAR
STARTCHAR dec208
ENCODING 208
SWIDTH 800 0
DWIDTH 8 0
BBX 8 16 0 -3
BITMAP
00
00
fe
fe
fe
c6
c6
c6
c6
c6
fe
7c
00
00
00
00
ENDCHAR
STARTCHAR dec209
ENCODING 209
SWIDTH 800 0
DWIDTH 8 0
BBX 8 16 0 -3
BITMAP
00
00
36
36
36
36
36
36
36
36
7e
7e
00
00
00
00
ENDCHAR
STARTCHAR dec210
ENCODING 210
SWIDTH 800 0
DWIDTH 8 0
BBX 8 16 0 -3
BITMAP
00
00
7e
7e
66
66
76
76
06
7e
7e
7e
00
00
00
00
ENDCHAR
STARTCHAR dec211
ENCODING 211
SWIDTH 800 0
DWIDTH 8 0
BBX 8 16 0 -3
BITMAP
00
00
6e
6e
66
36
3e
18
1c
0e
7e
7e
00
00
00
00
ENDCHAR
STARTCHAR dec212
ENCODING 212
SWIDTH 800 0
DWIDTH 8 0
BBX 8 16 0 -3
BITMAP
00
00
3e
3e
3e
06
06
36
36
36
36
36
30
30
30
00
ENDCHAR
STARTCHAR dec213
ENCODING 213
SWIDTH 800 0
DWIDTH 8 0
BBX 8 16 0 -3
BITMAP
00
00
7c
7e
06
06
06
06
06
06
06
06
00
00
00
00
ENDCHAR
STARTCHAR dec214
ENCODING 214
SWIDTH 800 0
DWIDTH 8 0
BBX 8 16 0 -3
BITMAP
00
00
d6
d6
d6
d6
f6
f6
c6
c6
fe
fe
00
00
00
00
ENDCHAR
STARTCHAR dec215
ENCODING 215
SWIDTH 800 0
DWIDTH 8 0
BBX 8 16 0 -3
BITMAP
00
00
7e
7e
66
66
66
66
66
66
e6
e6
00
00
00
00
ENDCHAR
STARTCHAR dec216
ENCODING 216
SWIDTH 800 0
DWIDTH 8 0
BBX 8 16 0 -3
BITMAP
00
00
38
38
18
18
18
18
18
18
18
18
18
18
00
00
ENDCHAR
STARTCHAR dec217
ENCODING 217
SWIDTH 800 0
DWIDTH 8 0
BBX 8 16 0 -3
BITMAP
00
00
7e
7e
06
06
06
06
06
06
06
06
06
06
00
00
ENDCHAR
STARTCHAR dec218
ENCODING 218
SWIDTH 800 0
DWIDTH 8 0
BBX 8 16 0 -3
BITMAP
00
00
7e
3e
36
36
36
36
36
36
3e
3e
00
00
00
00
ENDCHAR
STARTCHAR dec219
ENCODING 219
SWIDTH 800 0
DWIDTH 8 0
BBX 8 16 0 -3
BITMAP
00
00
7e
7e
66
66
76
76
06
06
06
06
06
06
00
00
ENDCHAR
STARTCHAR dec220
ENCODING 220
SWIDTH 800 0
DWIDTH 8 0
BBX 8 16 0 -3
BITMAP
00
00
6e
6e
66
76
3e
0e
06
06
06
06
06
06
00
00
ENDCHAR
STARTCHAR dec221
ENCODING 221
SWIDTH 800 0
DWIDTH 8 0
BBX 8 16 0 -3
BITMAP
00
00
1c
36
32
18
3c
66
66
3c
18
4c
6c
38
00
00
ENDCHAR
STARTCHAR dec222
ENCODING 222
SWIDTH 800 0
DWIDTH 8 0
BBX 8 16 0 -3
BITMAP
00
00
00
00
00
10
10
38
38
6c
6c
c6
c6
00
00
00
ENDCHAR
STARTCHAR dec223
ENCODING 223
SWIDTH 800 0
DWIDTH 8 0
BBX 8 16 0 -3
BITMAP
00
00
00
00
66
f7
99
99
ef
66
00
00
00
00
00
00
ENDCHAR
STARTCHAR dec224
ENCODING 224
SWIDTH 800 0
DWIDTH 8 0
BBX 8 16 0 -3
BITMAP
00
00
00
00
62
f6
dc
88
88
dc
f6
62
00
00
00
00
ENDCHAR
STARTCHAR dec225
ENCODING 225
SWIDTH 800 0
DWIDTH 8 0
BBX 8 16 0 -3
BITMAP
00
00
18
3c
66
66
66
7c
66
66
66
7c
6c
60
40
00
ENDCHAR
STARTCHAR dec226
ENCODING 226
SWIDTH 800 0
DWIDTH 8 0
BBX 8 16 0 -3
BITMAP
00
00
fe
7e
62
60
60
60
60
60
60
60
60
f0
00
00
ENDCHAR
STARTCHAR dec227
ENCODING 227
SWIDTH 800 0
DWIDTH 8 0
BBX 8 16 0 -3
BITMAP
00
00
00
00
02
7e
fc
a8
28
28
28
28
00
00
00
00
ENDCHAR
STARTCHAR dec228
ENCODING 228
SWIDTH 800 0
DWIDTH 8 0
BBX 8 16 0 -3
BITMAP
00
00
fe
fe
60
30
18
0c
0c
18
30
60
fe
fe
00
00
ENDCHAR
STARTCHAR dec229
ENCODING 229
SWIDTH 800 0
DWIDTH 8 0
BBX 8 16 0 -3
BITMAP
00
00
00
00
1e
38
6c
c6
c6
c6
c6
6c
38
00
00
00
ENDCHAR
STARTCHAR dec230
ENCODING 230
SWIDTH 800 0
DWIDTH 8 0
BBX 8 16 0 -3
BITMAP
00
00
00
00
00
66
66
66
66
66
66
7f
5d
c0
80
00
ENDCHAR
STARTCHAR dec231
ENCODING 231
SWIDTH 800 0
DWIDTH 8 0
BBX 8 16 0 -3
BITMAP
00
00
00
02
7e
fc
90
30
30
30
30
20
00
00
00
00
ENDCHAR
STARTCHAR dec232
ENCODING 232
SWIDTH 800 0
DWIDTH 8 0
BBX 8 16 0 -3
BITMAP
00
7c
10
10
7c
c6
82
82
82
82
c6
7c
10
10
7c
00
ENDCHAR
STARTCHAR dec233
ENCODING 233
SWIDTH 800 0
DWIDTH 8 0
BBX 8 16 0 -3
BITMAP
00
00
3c
7e
66
42
42
7e
42
42
66
7e
3c
00
00
00
ENDCHAR
STARTCHAR dec234
ENCODING 234
SWIDTH 800 0
DWIDTH 8 0
BBX 8 16 0 -3
BITMAP
00
00
38
6c
c6
c6
c6
c6
6c
28
aa
ee
6c
00
00
00
ENDCHAR
STARTCHAR dec235
ENCODING 235
SWIDTH 800 0
DWIDTH 8 0
BBX 8 16 0 -3
BITMAP
00
1e
3e
20
30
18
3c
66
42
42
66
7e
3c
00
00
00
ENDCHAR
STARTCHAR dec236
ENCODING 236
SWIDTH 800 0
DWIDTH 8 0
BBX 8 16 0 -3
BITMAP
00
0e
1e
10
7c
d6
92
92
92
92
d6
7c
10
f0
e0
00
ENDCHAR
STARTCHAR dec237
ENCODING 237
SWIDTH 800 0
DWIDTH 8 0
BBX 8 16 0 -3
BITMAP
00
00
10
10
7c
d6
92
92
92
92
d6
7c
10
10
00
00
ENDCHAR
STARTCHAR dec238
ENCODING 238
SWIDTH 800 0
DWIDTH 8 0
BBX 8 16 0 -3
BITMAP
00
00
3e
7e
e0
c0
c0
fc
fc
c0
c0
e0
7e
3e
00
00
ENDCHAR
STARTCHAR dec239
ENCODING 239
SWIDTH 800 0
DWIDTH 8 0
BBX 8 16 0 -3
BITMAP
00
00
7c
fe
c6
c6
c6
c6
c6
c6
c6
c6
c6
c6
00
00
ENDCHAR
STARTCHAR dec240
ENCODING 240
SWIDTH 800 0
DWIDTH 8 0
BBX 8 16 0 -3
BITMAP
00
00
00
00
7e
7e
00
7e
7e
00
7e
7e
00
00
00
00
ENDCHAR
STARTCHAR dec241
ENCODING 241
SWIDTH 800 0
DWIDTH 8 0
BBX 8 16 0 -3
BITMAP
00
00
00
18
18
18
7e
7e
18
18
18
00
7e
7e
00
00
ENDCHAR
STARTCHAR dec242
ENCODING 242
SWIDTH 800 0
DWIDTH 8 0
BBX 8 16 0 -3
BITMAP
00
00
60
70
38
1c
0e
1c
38
70
60
00
7e
7e
00
00
ENDCHAR
STARTCHAR dec243
ENCODING 243
SWIDTH 800 0
DWIDTH 8 0
BBX 8 16 0 -3
BITMAP
00
00
06
0e
1c
38
70
38
1c
0e
06
00
7e
7e
00
00
ENDCHAR
STARTCHAR dec244
ENCODING 244
SWIDTH 800 0
DWIDTH 8 0
BBX 8 16 0 -3
BITMAP
00
00
0e
19
1b
1b
18
18
18
18
18
18
18
18
18
18
ENDCHAR
STARTCHAR dec245
ENCODING 245
SWIDTH 800 0
DWIDTH 8 0
BBX 8 16 0 -3
BITMAP
18
18
18
18
18
18
18
18
18
18
d8
d8
98
70
00
00
ENDCHAR
STARTCHAR dec246
ENCODING 246
SWIDTH 800 0
DWIDTH 8 0
BBX 8 16 0 -3
BITMAP
00
00
00
18
18
00
7e
7e
00
18
18
00
00
00
00
00
ENDCHAR
STARTCHAR dec247
ENCODING 247
SWIDTH 800 0
DWIDTH 8 0
BBX 8 16 0 -3
BITMAP
00
00
00
02
3e
7c
40
02
3e
7c
40
00
00
00
00
00
ENDCHAR
STARTCHAR dec248
ENCODING 248
SWIDTH 800 0
DWIDTH 8 0
BBX 8 16 0 -3
BITMAP
00
38
6c
44
6c
38
00
00
00
00
00
00
00
00
00
00
ENDCHAR
STARTCHAR dec249
ENCODING 249
SWIDTH 800 0
DWIDTH 8 0
BBX 8 16 0 -3
BITMAP
00
38
7c
7c
7c
38
00
00
00
00
00
00
00
00
00
00
ENDCHAR
STARTCHAR dec250
ENCODING 250
SWIDTH 800 0
DWIDTH 8 0
BBX 8 16 0 -3
BITMAP
00
00
00
00
00
00
00
00
00
18
3c
3c
18
00
00
00
ENDCHAR
STARTCHAR dec251
ENCODING 251
SWIDTH 800 0
DWIDTH 8 0
BBX 8 16 0 -3
BITMAP
00
00
00
00
00
1f
10
d0
d0
50
70
20
00
00
00
00
ENDCHAR
STARTCHAR dec252
ENCODING 252
SWIDTH 800 0
DWIDTH 8 0
BBX 8 16 0 -3
BITMAP
00
00
30
78
48
48
48
48
00
00
00
00
00
00
00
00
ENDCHAR
STARTCHAR dec253
ENCODING 253
SWIDTH 800 0
DWIDTH 8 0
BBX 8 16 0 -3
BITMAP
00
00
30
48
18
30
60
78
00
00
00
00
00
00
00
00
ENDCHAR
STARTCHAR dec254
ENCODING 254
SWIDTH 800 0
DWIDTH 8 0
BBX 8 16 0 -3
BITMAP
00
00
78
18
30
18
48
30
00
00
00
00
00
00
00
00
ENDCHAR
STARTCHAR dec255
ENCODING 255
SWIDTH 800 0
DWIDTH 8 0
BBX 8 16 0 -3
BITMAP
00
fe
fe
00
00
00
00
00
00
00
00
00
00
00
00
00
ENDCHAR
ENDFONT
